<svg width="26" height="26" viewBox="0 0 26 26" fill="none" xmlns="http://www.w3.org/2000/svg">
<path d="M2.587 22.413C2.979 22.8043 3.45 23 4 23H15C15.55 23 16.021 22.8043 16.413 22.413C16.8043 22.021 17 21.55 17 21V19H15V21H4V5H12V3H4C3.45 3 2.979 3.19567 2.587 3.587C2.19567 3.979 2 4.45 2 5V21C2 21.55 2.19567 22.021 2.587 22.413Z" fill="black"/>
<path d="M6 17V19H13V17H6Z" fill="black"/>
<path d="M6 16V14H11V16H6Z" fill="black"/>
<path fill-rule="evenodd" clip-rule="evenodd" d="M13.3587 15.6413C13.5983 15.8804 13.8861 16 14.2222 16H22.7778C23.1139 16 23.4017 15.8804 23.6413 15.6413C23.8804 15.4017 24 15.1139 24 14.7778V7.94861C24 7.78565 23.9694 7.63022 23.9083 7.48233C23.8472 7.33485 23.7606 7.20509 23.6486 7.09306L21.9069 5.35139C21.7949 5.23935 21.6651 5.15278 21.5177 5.09167C21.3698 5.03056 21.2144 5 21.0514 5H14.2222C13.8861 5 13.5983 5.11957 13.3587 5.35872C13.1196 5.59828 13 5.88611 13 6.22222V14.7778C13 15.1139 13.1196 15.4017 13.3587 15.6413ZM19.7986 13.6319C19.4421 13.9884 19.0093 14.1667 18.5 14.1667C17.9907 14.1667 17.5579 13.9884 17.2014 13.6319C16.8449 13.2755 16.6667 12.8426 16.6667 12.3333C16.6667 11.8241 16.8449 11.3912 17.2014 11.0347C17.5579 10.6782 17.9907 10.5 18.5 10.5C19.0093 10.5 19.4421 10.6782 19.7986 11.0347C20.1551 11.3912 20.3333 11.8241 20.3333 12.3333C20.3333 12.8426 20.1551 13.2755 19.7986 13.6319ZM19.7222 9.27778H15.4444C15.2713 9.27778 15.1261 9.21911 15.0087 9.10178C14.8918 8.98485 14.8333 8.83982 14.8333 8.66667V7.44444C14.8333 7.2713 14.8918 7.12606 15.0087 7.00872C15.1261 6.8918 15.2713 6.83333 15.4444 6.83333H19.7222C19.8954 6.83333 20.0406 6.8918 20.1579 7.00872C20.2749 7.12606 20.3333 7.2713 20.3333 7.44444V8.66667C20.3333 8.83982 20.2749 8.98485 20.1579 9.10178C20.0406 9.21911 19.8954 9.27778 19.7222 9.27778Z" fill="black"/>
</svg>
