<svg width="26" height="26" viewBox="0 0 26 26" fill="none" xmlns="http://www.w3.org/2000/svg">
<path d="M3.587 22.413C3.979 22.8043 4.45 23 5 23H16C16.55 23 17.021 22.8043 17.413 22.413C17.8043 22.021 18 21.55 18 21V19H16V21H5V5H13V3H5C4.45 3 3.979 3.19567 3.587 3.587C3.19567 3.979 3 4.45 3 5V21C3 21.55 3.19567 22.021 3.587 22.413Z" fill="white"/>
<path d="M7 17V19H14V17H7Z" fill="white"/>
<path d="M7 14V16H12V14H7Z" fill="white"/>
<path d="M15.9286 16C15.2214 16 14.6429 15.4 14.6429 14.6667V6.66667H22.3571V14.6667C22.3571 15.4 21.7786 16 21.0714 16H15.9286Z" fill="white"/>
<path d="M20.75 4.66667H23V6H14V4.66667H16.25L16.8929 4H20.1071L20.75 4.66667Z" fill="white"/>
</svg>
