<svg width="26" height="26" viewBox="0 0 26 26" fill="none" xmlns="http://www.w3.org/2000/svg">
<path d="M17 11C16.45 11 15.9793 10.8083 15.588 10.425C15.196 10.0417 15 9.56667 15 9V5C15 4.43333 15.196 3.95833 15.588 3.575C15.9793 3.19167 16.45 3 17 3C17.5667 3 18.0417 3.19167 18.425 3.575C18.8083 3.95833 19 4.43333 19 5V9C19 9.56667 18.8083 10.0417 18.425 10.425C18.0417 10.8083 17.5667 11 17 11ZM5 23C4.45 23 3.979 22.8043 3.587 22.413C3.19567 22.021 3 21.55 3 21V5C3 4.45 3.19567 3.979 3.587 3.587C3.979 3.19567 4.45 3 5 3H13V5H5V21H16V19H18V21C18 21.55 17.8043 22.021 17.413 22.413C17.021 22.8043 16.55 23 16 23H5ZM7 19V17H14V19H7ZM7 16V14H12V16H7ZM18 17H16V14.4C14.7167 14.1667 13.646 13.5457 12.788 12.537C11.9293 11.529 11.5 10.35 11.5 9H13.5C13.5 9.96667 13.8417 10.7917 14.525 11.475C15.2083 12.1583 16.0333 12.5 17 12.5C17.9833 12.5 18.8127 12.1583 19.488 11.475C20.1627 10.7917 20.5 9.96667 20.5 9H22.5C22.5 10.35 22.075 11.529 21.225 12.537C20.375 13.5457 19.3 14.1667 18 14.4V17Z" fill="white"/>
</svg>
