<svg width="26" height="26" viewBox="0 0 26 26" fill="none" xmlns="http://www.w3.org/2000/svg">
<path d="M4.85714 22.7321C4.34643 22.7321 3.90938 22.5505 3.546 22.1871C3.182 21.8231 3 21.3857 3 20.875V6.01786C3 5.50714 3.182 5.06979 3.546 4.70579C3.90938 4.3424 4.34643 4.16071 4.85714 4.16071H13.2143L11.3571 6.01786H4.85714V20.875H15.0714V18.0893H16.9286V20.875C16.9286 21.3857 16.7469 21.8231 16.3835 22.1871C16.0195 22.5505 15.5821 22.7321 15.0714 22.7321H4.85714ZM6.71429 19.0179V17.1607H13.2143V19.0179H6.71429ZM6.71429 16.2321V14.375H11.3571V16.2321H6.71429ZM15.0714 16.2321L11.3571 12.5179H8.57143V7.875H11.3571L15.0714 4.16071V16.2321ZM16.9286 13.4V6.99286C17.4857 7.31786 17.9345 7.75893 18.275 8.31607C18.6155 8.87321 18.7857 9.5 18.7857 10.1964C18.7857 10.8929 18.6155 11.5196 18.275 12.0768C17.9345 12.6339 17.4857 13.075 16.9286 13.4ZM16.9286 17.3929V15.4429C18.0119 15.056 18.9018 14.3865 19.5982 13.4344C20.2946 12.4829 20.6429 11.4036 20.6429 10.1964C20.6429 8.98929 20.2946 7.90967 19.5982 6.95757C18.9018 6.0061 18.0119 5.3369 16.9286 4.95V3C18.5381 3.41786 19.869 4.28824 20.9214 5.61114C21.9738 6.93467 22.5 8.4631 22.5 10.1964C22.5 11.9298 21.9738 13.4582 20.9214 14.7817C19.869 16.1046 18.5381 16.975 16.9286 17.3929Z" fill="black"/>
</svg>
